<svg xmlns="http://www.w3.org/2000/svg" viewBox="0 0 1000 1000">
<defs><mask id="cm"><rect width="1000" height="1000" fill="white"/>
<path d="M 500 722 L 413 556 C 386 478 390 408 430 358 C 452 330 474 318 500 314 C 526 318 548 330 570 358 C 610 408 614 478 587 556 Z" fill="black" stroke="black" stroke-width="54" stroke-linejoin="miter"/></mask></defs>
<circle cx="500" cy="500" r="480" stroke="#16130E" stroke-width="7" fill="none"/>
<path d="M 958 500 L 979 500 M 957 529 L 978 530 M 954 557 L 975 560 M 950 586 L 971 590 M 944 614 L 964 619 M 936 642 L 956 648 M 926 669 L 945 676 M 914 695 L 933 704 M 901 721 L 920 731 M 887 745 L 904 757 M 871 769 L 888 782 M 853 792 L 869 805 M 834 814 L 849 828 M 814 834 L 828 849 M 792 853 L 805 869 M 769 871 L 782 888 M 745 887 L 757 904 M 721 901 L 731 920 M 695 914 L 704 933 M 669 926 L 676 945 M 642 936 L 648 956 M 614 944 L 619 964 M 586 950 L 590 971 M 557 954 L 560 975 M 529 957 L 530 978 M 500 958 L 500 979 M 471 957 L 470 978 M 443 954 L 440 975 M 414 950 L 410 971 M 386 944 L 381 964 M 358 936 L 352 956 M 331 926 L 324 945 M 305 914 L 296 933 M 279 901 L 269 920 M 255 887 L 243 904 M 231 871 L 218 888 M 208 853 L 195 869 M 186 834 L 172 849 M 166 814 L 151 828 M 147 792 L 131 805 M 129 769 L 112 782 M 113 745 L 96 757 M 99 721 L 80 731 M 86 695 L 67 704 M 74 669 L 55 676 M 64 642 L 44 648 M 56 614 L 36 619 M 50 586 L 29 590 M 46 557 L 25 560 M 43 529 L 22 530 M 42 500 L 21 500 M 43 471 L 22 470 M 46 443 L 25 440 M 50 414 L 29 410 M 56 386 L 36 381 M 64 358 L 44 352 M 74 331 L 55 324 M 86 305 L 67 296 M 99 279 L 80 269 M 113 255 L 96 243 M 129 231 L 112 218 M 147 208 L 131 195 M 166 186 L 151 172 M 186 166 L 172 151 M 208 147 L 195 131 M 231 129 L 218 112 M 255 113 L 243 96 M 279 99 L 269 80 M 305 86 L 296 67 M 331 74 L 324 55 M 358 64 L 352 44 M 386 56 L 381 36 M 414 50 L 410 29 M 443 46 L 440 25 M 471 43 L 470 22 M 500 42 L 500 21 M 529 43 L 530 22 M 557 46 L 560 25 M 586 50 L 590 29 M 614 56 L 619 36 M 642 64 L 648 44 M 669 74 L 676 55 M 695 86 L 704 67 M 721 99 L 731 80 M 745 113 L 757 96 M 769 129 L 782 112 M 792 147 L 805 131 M 814 166 L 828 151 M 834 186 L 849 172 M 853 208 L 869 195 M 871 231 L 888 218 M 887 255 L 904 243 M 901 279 L 920 269 M 914 305 L 933 296 M 926 331 L 945 324 M 936 358 L 956 352 M 944 386 L 964 381 M 950 414 L 971 410 M 954 443 L 975 440 M 957 471 L 978 470" stroke="#16130E" stroke-width="3" fill="none" opacity=".9"/>
<circle cx="500" cy="500" r="446" stroke="#16130E" stroke-width="4" fill="none"/>
<g transform="translate(500,500) scale(1.06) translate(-500,-500)">
<g mask="url(#cm)"><path d="M 618 500 L 619 504 L 620 508 L 620 511 L 620 515 L 619 519 L 618 523 L 617 526 L 615 529 L 613 533 L 611 536 L 609 539 L 607 542 L 606 546 L 604 549 L 604 553 L 603 556 L 602 560 L 601 564 L 600 568 L 598 571 L 596 574 L 593 577 L 590 579 L 587 582 L 583 583 L 580 585 L 577 587 L 573 589 L 570 591 L 568 593 L 565 596 L 562 598 L 560 601 L 557 604 L 554 607 L 551 609 L 548 611 L 545 613 L 541 613 L 537 614 L 533 614 L 529 614 L 525 614 L 522 614 L 518 614 L 514 614 L 511 615 L 507 616 L 504 617 L 500 618 L 496 619 L 492 620 L 489 620 L 485 620 L 481 619 L 477 618 L 474 617 L 471 615 L 467 613 L 464 611 L 461 609 L 458 607 L 454 606 L 451 604 L 447 604 L 444 603 L 440 602 L 436 601 L 432 600 L 429 598 L 426 596 L 423 593 L 421 590 L 418 587 L 417 583 L 415 580 L 413 577 L 411 573 L 409 570 L 407 568 L 404 565 L 402 562 L 399 560 L 396 557 L 393 554 L 391 551 L 389 548 L 387 545 L 387 541 L 386 537 L 386 533 L 386 529 L 386 525 L 386 522 L 386 518 L 386 514 L 385 511 L 384 507 L 383 504 L 382 500 L 381 496 L 380 492 L 380 489 L 380 485 L 381 481 L 382 477 L 383 474 L 385 471 L 387 467 L 389 464 L 391 461 L 393 458 L 394 454 L 396 451 L 396 447 L 397 444 L 398 440 L 399 436 L 400 432 L 402 429 L 404 426 L 407 423 L 410 421 L 413 418 L 417 417 L 420 415 L 423 413 L 427 411 L 430 409 L 432 407 L 435 404 L 438 402 L 440 399 L 443 396 L 446 393 L 449 391 L 452 389 L 455 387 L 459 387 L 463 386 L 467 386 L 471 386 L 475 386 L 478 386 L 482 386 L 486 386 L 489 385 L 493 384 L 496 383 L 500 382 L 504 381 L 508 380 L 511 380 L 515 380 L 519 381 L 523 382 L 526 383 L 529 385 L 533 387 L 536 389 L 539 391 L 542 393 L 546 394 L 549 396 L 553 396 L 556 397 L 560 398 L 564 399 L 568 400 L 571 402 L 574 404 L 577 407 L 579 410 L 582 413 L 583 417 L 585 420 L 587 423 L 589 427 L 591 430 L 593 432 L 596 435 L 598 438 L 601 440 L 604 443 L 607 446 L 609 449 L 611 452 L 613 455 L 613 459 L 614 463 L 614 467 L 614 471 L 614 475 L 614 478 L 614 482 L 614 486 L 615 489 L 616 493 L 617 496 L 618 500 Z" stroke="#16130E" stroke-width="1.9" fill="none" opacity=".85"/><path d="M 630 500 L 631 504 L 632 508 L 632 512 L 631 517 L 630 521 L 628 524 L 626 528 L 623 532 L 621 535 L 619 539 L 618 542 L 616 546 L 615 550 L 615 554 L 614 558 L 613 562 L 612 567 L 611 571 L 609 574 L 607 578 L 604 581 L 601 583 L 597 586 L 593 588 L 590 590 L 586 592 L 583 594 L 580 596 L 577 599 L 574 602 L 571 605 L 569 608 L 566 612 L 563 615 L 560 617 L 556 620 L 552 621 L 548 622 L 544 623 L 540 623 L 536 623 L 531 622 L 527 622 L 523 623 L 520 623 L 516 624 L 512 626 L 508 627 L 504 629 L 500 630 L 496 631 L 492 632 L 488 632 L 483 631 L 479 630 L 476 628 L 472 626 L 468 623 L 465 621 L 461 619 L 458 618 L 454 616 L 450 615 L 446 615 L 442 614 L 438 613 L 433 612 L 429 611 L 426 609 L 422 607 L 419 604 L 417 601 L 414 597 L 412 593 L 410 590 L 408 586 L 406 583 L 404 580 L 401 577 L 398 574 L 395 571 L 392 569 L 388 566 L 385 563 L 383 560 L 380 556 L 379 552 L 378 548 L 377 544 L 377 540 L 377 536 L 378 531 L 378 527 L 377 523 L 377 520 L 376 516 L 374 512 L 373 508 L 371 504 L 370 500 L 369 496 L 368 492 L 368 488 L 369 483 L 370 479 L 372 476 L 374 472 L 377 468 L 379 465 L 381 461 L 382 458 L 384 454 L 385 450 L 385 446 L 386 442 L 387 438 L 388 433 L 389 429 L 391 426 L 393 422 L 396 419 L 399 417 L 403 414 L 407 412 L 410 410 L 414 408 L 417 406 L 420 404 L 423 401 L 426 398 L 429 395 L 431 392 L 434 388 L 437 385 L 440 383 L 444 380 L 448 379 L 452 378 L 456 377 L 460 377 L 464 377 L 469 378 L 473 378 L 477 377 L 480 377 L 484 376 L 488 374 L 492 373 L 496 371 L 500 370 L 504 369 L 508 368 L 512 368 L 517 369 L 521 370 L 524 372 L 528 374 L 532 377 L 535 379 L 539 381 L 542 382 L 546 384 L 550 385 L 554 385 L 558 386 L 562 387 L 567 388 L 571 389 L 574 391 L 578 393 L 581 396 L 583 399 L 586 403 L 588 407 L 590 410 L 592 414 L 594 417 L 596 420 L 599 423 L 602 426 L 605 429 L 608 431 L 612 434 L 615 437 L 617 440 L 620 444 L 621 448 L 622 452 L 623 456 L 623 460 L 623 464 L 622 469 L 622 473 L 623 477 L 623 480 L 624 484 L 626 488 L 627 492 L 629 496 L 630 500 Z" stroke="#16130E" stroke-width="1.9" fill="none" opacity=".85"/><path d="M 643 500 L 643 505 L 643 509 L 642 513 L 641 518 L 639 522 L 636 526 L 634 530 L 632 534 L 630 538 L 628 542 L 627 546 L 627 550 L 626 555 L 626 559 L 625 564 L 624 568 L 623 573 L 621 577 L 618 581 L 615 584 L 612 587 L 608 589 L 604 591 L 600 594 L 596 596 L 592 598 L 589 601 L 586 604 L 584 608 L 581 612 L 578 615 L 576 619 L 572 623 L 569 625 L 565 628 L 561 629 L 556 630 L 552 631 L 547 631 L 543 631 L 538 631 L 534 631 L 529 632 L 525 633 L 521 634 L 517 636 L 513 638 L 509 640 L 504 641 L 500 643 L 495 643 L 491 643 L 487 642 L 482 641 L 478 639 L 474 636 L 470 634 L 466 632 L 462 630 L 458 628 L 454 627 L 450 627 L 445 626 L 441 626 L 436 625 L 432 624 L 427 623 L 423 621 L 419 618 L 416 615 L 413 612 L 411 608 L 409 604 L 406 600 L 404 596 L 402 592 L 399 589 L 396 586 L 392 584 L 388 581 L 385 578 L 381 576 L 377 572 L 375 569 L 372 565 L 371 561 L 370 556 L 369 552 L 369 547 L 369 543 L 369 538 L 369 534 L 368 529 L 367 525 L 366 521 L 364 517 L 362 513 L 360 509 L 359 504 L 357 500 L 357 495 L 357 491 L 358 487 L 359 482 L 361 478 L 364 474 L 366 470 L 368 466 L 370 462 L 372 458 L 373 454 L 373 450 L 374 445 L 374 441 L 375 436 L 376 432 L 377 427 L 379 423 L 382 419 L 385 416 L 388 413 L 392 411 L 396 409 L 400 406 L 404 404 L 408 402 L 411 399 L 414 396 L 416 392 L 419 388 L 422 385 L 424 381 L 428 377 L 431 375 L 435 372 L 439 371 L 444 370 L 448 369 L 453 369 L 457 369 L 462 369 L 466 369 L 471 368 L 475 367 L 479 366 L 483 364 L 487 362 L 491 360 L 496 359 L 500 357 L 505 357 L 509 357 L 513 358 L 518 359 L 522 361 L 526 364 L 530 366 L 534 368 L 538 370 L 542 372 L 546 373 L 550 373 L 555 374 L 559 374 L 564 375 L 568 376 L 573 377 L 577 379 L 581 382 L 584 385 L 587 388 L 589 392 L 591 396 L 594 400 L 596 404 L 598 408 L 601 411 L 604 414 L 608 416 L 612 419 L 615 422 L 619 424 L 623 428 L 625 431 L 628 435 L 629 439 L 630 444 L 631 448 L 631 453 L 631 457 L 631 462 L 631 466 L 632 471 L 633 475 L 634 479 L 636 483 L 638 487 L 640 491 L 641 496 L 643 500 Z" stroke="#16130E" stroke-width="1.9" fill="none" opacity=".85"/><path d="M 655 500 L 654 505 L 653 510 L 652 514 L 649 519 L 647 523 L 644 528 L 642 532 L 640 536 L 639 540 L 638 545 L 638 550 L 638 555 L 638 560 L 637 565 L 637 570 L 635 574 L 633 579 L 630 583 L 627 586 L 623 589 L 618 592 L 614 594 L 610 597 L 606 600 L 602 602 L 599 606 L 596 609 L 594 613 L 591 618 L 589 622 L 586 626 L 582 630 L 579 633 L 574 635 L 570 637 L 565 638 L 560 639 L 555 639 L 550 639 L 545 639 L 540 639 L 536 640 L 532 642 L 527 644 L 523 646 L 519 648 L 514 651 L 510 653 L 505 654 L 500 655 L 495 654 L 490 653 L 486 652 L 481 649 L 477 647 L 472 644 L 468 642 L 464 640 L 460 639 L 455 638 L 450 638 L 445 638 L 440 638 L 435 637 L 430 637 L 426 635 L 421 633 L 417 630 L 414 627 L 411 623 L 408 618 L 406 614 L 403 610 L 400 606 L 398 602 L 394 599 L 391 596 L 387 594 L 382 591 L 378 589 L 374 586 L 370 582 L 367 579 L 365 574 L 363 570 L 362 565 L 361 560 L 361 555 L 361 550 L 361 545 L 361 540 L 360 536 L 358 532 L 356 527 L 354 523 L 352 519 L 349 514 L 347 510 L 346 505 L 345 500 L 346 495 L 347 490 L 348 486 L 351 481 L 353 477 L 356 472 L 358 468 L 360 464 L 361 460 L 362 455 L 362 450 L 362 445 L 362 440 L 363 435 L 363 430 L 365 426 L 367 421 L 370 417 L 373 414 L 377 411 L 382 408 L 386 406 L 390 403 L 394 400 L 398 398 L 401 394 L 404 391 L 406 387 L 409 382 L 411 378 L 414 374 L 418 370 L 421 367 L 426 365 L 430 363 L 435 362 L 440 361 L 445 361 L 450 361 L 455 361 L 460 361 L 464 360 L 468 358 L 473 356 L 477 354 L 481 352 L 486 349 L 490 347 L 495 346 L 500 345 L 505 346 L 510 347 L 514 348 L 519 351 L 523 353 L 528 356 L 532 358 L 536 360 L 540 361 L 545 362 L 550 362 L 555 362 L 560 362 L 565 363 L 570 363 L 574 365 L 579 367 L 583 370 L 586 373 L 589 377 L 592 382 L 594 386 L 597 390 L 600 394 L 602 398 L 606 401 L 609 404 L 613 406 L 618 409 L 622 411 L 626 414 L 630 418 L 633 421 L 635 426 L 637 430 L 638 435 L 639 440 L 639 445 L 639 450 L 639 455 L 639 460 L 640 464 L 642 468 L 644 473 L 646 477 L 648 481 L 651 486 L 653 490 L 654 495 L 655 500 Z" stroke="#16130E" stroke-width="1.9" fill="none" opacity=".85"/><path d="M 665 500 L 664 505 L 662 510 L 660 515 L 657 520 L 655 525 L 653 529 L 651 534 L 650 539 L 650 543 L 650 549 L 650 554 L 650 559 L 650 565 L 649 570 L 648 575 L 645 580 L 642 584 L 638 588 L 634 591 L 629 594 L 625 597 L 620 600 L 616 603 L 613 606 L 610 610 L 607 614 L 604 618 L 602 623 L 599 628 L 596 632 L 593 637 L 589 640 L 584 643 L 579 644 L 574 645 L 569 646 L 563 646 L 558 646 L 553 647 L 548 647 L 543 649 L 539 650 L 534 653 L 530 656 L 525 659 L 520 661 L 515 663 L 510 665 L 505 666 L 500 665 L 495 664 L 490 662 L 485 660 L 480 657 L 475 655 L 471 653 L 466 651 L 461 650 L 457 650 L 451 650 L 446 650 L 441 650 L 435 650 L 430 649 L 425 648 L 420 645 L 416 642 L 412 638 L 409 634 L 406 629 L 403 625 L 400 620 L 397 616 L 394 613 L 390 610 L 386 607 L 382 604 L 377 602 L 372 599 L 368 596 L 363 593 L 360 589 L 357 584 L 356 579 L 355 574 L 354 569 L 354 563 L 354 558 L 353 553 L 353 548 L 351 543 L 350 539 L 347 534 L 344 530 L 341 525 L 339 520 L 337 515 L 335 510 L 334 505 L 335 500 L 336 495 L 338 490 L 340 485 L 343 480 L 345 475 L 347 471 L 349 466 L 350 461 L 350 457 L 350 451 L 350 446 L 350 441 L 350 435 L 351 430 L 352 425 L 355 420 L 358 416 L 362 412 L 366 409 L 371 406 L 375 403 L 380 400 L 384 397 L 387 394 L 390 390 L 393 386 L 396 382 L 398 377 L 401 372 L 404 368 L 407 363 L 411 360 L 416 357 L 421 356 L 426 355 L 431 354 L 437 354 L 442 354 L 447 353 L 452 353 L 457 351 L 461 350 L 466 347 L 470 344 L 475 341 L 480 339 L 485 337 L 490 335 L 495 334 L 500 335 L 505 336 L 510 338 L 515 340 L 520 343 L 525 345 L 529 347 L 534 349 L 539 350 L 543 350 L 549 350 L 554 350 L 559 350 L 565 350 L 570 351 L 575 352 L 580 355 L 584 358 L 588 362 L 591 366 L 594 371 L 597 375 L 600 380 L 603 384 L 606 387 L 610 390 L 614 393 L 618 396 L 623 398 L 628 401 L 632 404 L 637 407 L 640 411 L 643 416 L 644 421 L 645 426 L 646 431 L 646 437 L 646 442 L 647 447 L 647 452 L 649 457 L 650 461 L 653 466 L 656 470 L 659 475 L 661 480 L 663 485 L 665 490 L 666 495 L 665 500 Z" stroke="#16130E" stroke-width="1.9" fill="none" opacity=".85"/><path d="M 675 500 L 673 505 L 670 511 L 668 516 L 665 521 L 663 526 L 662 531 L 661 536 L 661 541 L 661 547 L 662 553 L 662 558 L 662 564 L 662 570 L 660 575 L 658 580 L 654 585 L 650 589 L 645 592 L 640 595 L 636 599 L 631 602 L 627 605 L 624 609 L 620 613 L 618 618 L 615 623 L 613 628 L 610 633 L 607 638 L 604 643 L 599 646 L 595 649 L 589 651 L 584 652 L 578 653 L 572 653 L 566 653 L 561 654 L 556 655 L 551 657 L 546 659 L 542 662 L 537 665 L 532 669 L 527 672 L 522 674 L 517 676 L 511 677 L 506 676 L 500 675 L 495 673 L 489 670 L 484 668 L 479 665 L 474 663 L 469 662 L 464 661 L 459 661 L 453 661 L 447 662 L 442 662 L 436 662 L 430 662 L 425 660 L 420 658 L 415 654 L 411 650 L 408 645 L 405 640 L 401 636 L 398 631 L 395 627 L 391 624 L 387 620 L 382 618 L 377 615 L 372 613 L 367 610 L 362 607 L 357 604 L 354 599 L 351 595 L 349 589 L 348 584 L 347 578 L 347 572 L 347 566 L 346 561 L 345 556 L 343 551 L 341 546 L 338 542 L 335 537 L 331 532 L 328 527 L 326 522 L 324 517 L 323 511 L 324 506 L 325 500 L 327 495 L 330 489 L 332 484 L 335 479 L 337 474 L 338 469 L 339 464 L 339 459 L 339 453 L 338 447 L 338 442 L 338 436 L 338 430 L 340 425 L 342 420 L 346 415 L 350 411 L 355 408 L 360 405 L 364 401 L 369 398 L 373 395 L 376 391 L 380 387 L 382 382 L 385 377 L 387 372 L 390 367 L 393 362 L 396 357 L 401 354 L 405 351 L 411 349 L 416 348 L 422 347 L 428 347 L 434 347 L 439 346 L 444 345 L 449 343 L 454 341 L 458 338 L 463 335 L 468 331 L 473 328 L 478 326 L 483 324 L 489 323 L 494 324 L 500 325 L 505 327 L 511 330 L 516 332 L 521 335 L 526 337 L 531 338 L 536 339 L 541 339 L 547 339 L 553 338 L 558 338 L 564 338 L 570 338 L 575 340 L 580 342 L 585 346 L 589 350 L 592 355 L 595 360 L 599 364 L 602 369 L 605 373 L 609 376 L 613 380 L 618 382 L 623 385 L 628 387 L 633 390 L 638 393 L 643 396 L 646 401 L 649 405 L 651 411 L 652 416 L 653 422 L 653 428 L 653 434 L 654 439 L 655 444 L 657 449 L 659 454 L 662 458 L 665 463 L 669 468 L 672 473 L 674 478 L 676 483 L 677 489 L 676 494 L 675 500 Z" stroke="#16130E" stroke-width="1.9" fill="none" opacity=".85"/><path d="M 683 500 L 680 506 L 678 511 L 675 517 L 674 522 L 672 527 L 672 533 L 673 539 L 673 544 L 674 551 L 675 557 L 675 563 L 674 569 L 673 575 L 670 580 L 666 585 L 662 589 L 657 593 L 652 596 L 647 600 L 642 603 L 638 607 L 635 611 L 632 616 L 629 621 L 627 627 L 625 633 L 622 639 L 619 644 L 615 648 L 611 652 L 605 655 L 600 657 L 594 658 L 587 659 L 581 659 L 575 660 L 570 661 L 564 662 L 559 665 L 554 668 L 550 671 L 545 675 L 540 679 L 535 682 L 529 685 L 524 687 L 518 687 L 512 687 L 506 685 L 500 683 L 494 680 L 489 678 L 483 675 L 478 674 L 473 672 L 467 672 L 461 673 L 456 673 L 449 674 L 443 675 L 437 675 L 431 674 L 425 673 L 420 670 L 415 666 L 411 662 L 407 657 L 404 652 L 400 647 L 397 642 L 393 638 L 389 635 L 384 632 L 379 629 L 373 627 L 367 625 L 361 622 L 356 619 L 352 615 L 348 611 L 345 605 L 343 600 L 342 594 L 341 587 L 341 581 L 340 575 L 339 570 L 338 564 L 335 559 L 332 554 L 329 550 L 325 545 L 321 540 L 318 535 L 315 529 L 313 524 L 313 518 L 313 512 L 315 506 L 317 500 L 320 494 L 322 489 L 325 483 L 326 478 L 328 473 L 328 467 L 327 461 L 327 456 L 326 449 L 325 443 L 325 437 L 326 431 L 327 425 L 330 420 L 334 415 L 338 411 L 343 407 L 348 404 L 353 400 L 358 397 L 362 393 L 365 389 L 368 384 L 371 379 L 373 373 L 375 367 L 378 361 L 381 356 L 385 352 L 389 348 L 395 345 L 400 343 L 406 342 L 413 341 L 419 341 L 425 340 L 430 339 L 436 338 L 441 335 L 446 332 L 450 329 L 455 325 L 460 321 L 465 318 L 471 315 L 476 313 L 482 313 L 488 313 L 494 315 L 500 317 L 506 320 L 511 322 L 517 325 L 522 326 L 527 328 L 533 328 L 539 327 L 544 327 L 551 326 L 557 325 L 563 325 L 569 326 L 575 327 L 580 330 L 585 334 L 589 338 L 593 343 L 596 348 L 600 353 L 603 358 L 607 362 L 611 365 L 616 368 L 621 371 L 627 373 L 633 375 L 639 378 L 644 381 L 648 385 L 652 389 L 655 395 L 657 400 L 658 406 L 659 413 L 659 419 L 660 425 L 661 430 L 662 436 L 665 441 L 668 446 L 671 450 L 675 455 L 679 460 L 682 465 L 685 471 L 687 476 L 687 482 L 687 488 L 685 494 L 683 500 Z" stroke="#16130E" stroke-width="1.9" fill="none" opacity=".85"/><path d="M 690 500 L 688 506 L 685 512 L 684 517 L 683 523 L 683 529 L 684 535 L 685 541 L 687 548 L 688 555 L 688 561 L 687 567 L 685 573 L 682 579 L 678 584 L 673 588 L 668 592 L 663 596 L 658 600 L 653 604 L 649 608 L 646 613 L 643 619 L 641 625 L 639 631 L 637 637 L 634 643 L 631 649 L 627 653 L 622 657 L 617 660 L 610 662 L 604 664 L 597 664 L 591 665 L 585 666 L 579 667 L 573 669 L 568 672 L 563 676 L 558 680 L 554 684 L 548 688 L 543 692 L 537 695 L 531 697 L 525 697 L 519 697 L 512 695 L 506 693 L 500 690 L 494 688 L 488 685 L 483 684 L 477 683 L 471 683 L 465 684 L 459 685 L 452 687 L 445 688 L 439 688 L 433 687 L 427 685 L 421 682 L 416 678 L 412 673 L 408 668 L 404 663 L 400 658 L 396 653 L 392 649 L 387 646 L 381 643 L 375 641 L 369 639 L 363 637 L 357 634 L 351 631 L 347 627 L 343 622 L 340 617 L 338 610 L 336 604 L 336 597 L 335 591 L 334 585 L 333 579 L 331 573 L 328 568 L 324 563 L 320 558 L 316 554 L 312 548 L 308 543 L 305 537 L 303 531 L 303 525 L 303 519 L 305 512 L 307 506 L 310 500 L 312 494 L 315 488 L 316 483 L 317 477 L 317 471 L 316 465 L 315 459 L 313 452 L 312 445 L 312 439 L 313 433 L 315 427 L 318 421 L 322 416 L 327 412 L 332 408 L 337 404 L 342 400 L 347 396 L 351 392 L 354 387 L 357 381 L 359 375 L 361 369 L 363 363 L 366 357 L 369 351 L 373 347 L 378 343 L 383 340 L 390 338 L 396 336 L 403 336 L 409 335 L 415 334 L 421 333 L 427 331 L 432 328 L 437 324 L 442 320 L 446 316 L 452 312 L 457 308 L 463 305 L 469 303 L 475 303 L 481 303 L 488 305 L 494 307 L 500 310 L 506 312 L 512 315 L 517 316 L 523 317 L 529 317 L 535 316 L 541 315 L 548 313 L 555 312 L 561 312 L 567 313 L 573 315 L 579 318 L 584 322 L 588 327 L 592 332 L 596 337 L 600 342 L 604 347 L 608 351 L 613 354 L 619 357 L 625 359 L 631 361 L 637 363 L 643 366 L 649 369 L 653 373 L 657 378 L 660 383 L 662 390 L 664 396 L 664 403 L 665 409 L 666 415 L 667 421 L 669 427 L 672 432 L 676 437 L 680 442 L 684 446 L 688 452 L 692 457 L 695 463 L 697 469 L 697 475 L 697 481 L 695 488 L 693 494 L 690 500 Z" stroke="#16130E" stroke-width="1.9" fill="none" opacity=".85"/><path d="M 697 500 L 695 506 L 694 512 L 694 518 L 695 525 L 696 531 L 698 538 L 699 545 L 701 551 L 701 558 L 700 565 L 698 571 L 695 577 L 690 582 L 685 587 L 680 592 L 674 596 L 669 600 L 665 604 L 661 609 L 658 615 L 656 621 L 654 627 L 652 634 L 650 640 L 647 647 L 644 653 L 639 658 L 634 662 L 628 665 L 621 667 L 615 668 L 608 669 L 601 670 L 594 672 L 588 673 L 583 676 L 578 679 L 573 684 L 568 688 L 563 693 L 558 698 L 552 702 L 546 705 L 539 707 L 533 707 L 526 707 L 519 705 L 513 702 L 506 700 L 500 697 L 494 695 L 488 694 L 482 694 L 475 695 L 469 696 L 462 698 L 455 699 L 449 701 L 442 701 L 435 700 L 429 698 L 423 695 L 418 690 L 413 685 L 408 680 L 404 674 L 400 669 L 396 665 L 391 661 L 385 658 L 379 656 L 373 654 L 366 652 L 360 650 L 353 647 L 347 644 L 342 639 L 338 634 L 335 628 L 333 621 L 332 615 L 331 608 L 330 601 L 328 594 L 327 588 L 324 583 L 321 578 L 316 573 L 312 568 L 307 563 L 302 558 L 298 552 L 295 546 L 293 539 L 293 533 L 293 526 L 295 519 L 298 513 L 300 506 L 303 500 L 305 494 L 306 488 L 306 482 L 305 475 L 304 469 L 302 462 L 301 455 L 299 449 L 299 442 L 300 435 L 302 429 L 305 423 L 310 418 L 315 413 L 320 408 L 326 404 L 331 400 L 335 396 L 339 391 L 342 385 L 344 379 L 346 373 L 348 366 L 350 360 L 353 353 L 356 347 L 361 342 L 366 338 L 372 335 L 379 333 L 385 332 L 392 331 L 399 330 L 406 328 L 412 327 L 417 324 L 422 321 L 427 316 L 432 312 L 437 307 L 442 302 L 448 298 L 454 295 L 461 293 L 467 293 L 474 293 L 481 295 L 487 298 L 494 300 L 500 303 L 506 305 L 512 306 L 518 306 L 525 305 L 531 304 L 538 302 L 545 301 L 551 299 L 558 299 L 565 300 L 571 302 L 577 305 L 582 310 L 587 315 L 592 320 L 596 326 L 600 331 L 604 335 L 609 339 L 615 342 L 621 344 L 627 346 L 634 348 L 640 350 L 647 353 L 653 356 L 658 361 L 662 366 L 665 372 L 667 379 L 668 385 L 669 392 L 670 399 L 672 406 L 673 412 L 676 417 L 679 422 L 684 427 L 688 432 L 693 437 L 698 442 L 702 448 L 705 454 L 707 461 L 707 467 L 707 474 L 705 481 L 702 487 L 700 494 L 697 500 Z" stroke="#16130E" stroke-width="1.9" fill="none" opacity=".85"/><path d="M 705 500 L 704 506 L 705 513 L 706 519 L 708 526 L 710 533 L 712 540 L 713 548 L 714 555 L 713 562 L 711 568 L 707 575 L 702 580 L 697 585 L 691 590 L 686 595 L 680 599 L 676 604 L 673 610 L 670 616 L 668 622 L 666 629 L 665 636 L 663 643 L 660 650 L 656 656 L 652 662 L 646 666 L 640 669 L 633 671 L 625 673 L 618 674 L 611 675 L 605 677 L 598 679 L 593 682 L 588 687 L 583 691 L 578 697 L 573 702 L 567 707 L 561 711 L 555 714 L 548 716 L 541 717 L 534 716 L 527 714 L 520 711 L 513 709 L 506 707 L 500 705 L 494 704 L 487 705 L 481 706 L 474 708 L 467 710 L 460 712 L 452 713 L 445 714 L 438 713 L 432 711 L 425 707 L 420 702 L 415 697 L 410 691 L 405 686 L 401 680 L 396 676 L 390 673 L 384 670 L 378 668 L 371 666 L 364 665 L 357 663 L 350 660 L 344 656 L 338 652 L 334 646 L 331 640 L 329 633 L 327 625 L 326 618 L 325 611 L 323 605 L 321 598 L 318 593 L 313 588 L 309 583 L 303 578 L 298 573 L 293 567 L 289 561 L 286 555 L 284 548 L 283 541 L 284 534 L 286 527 L 289 520 L 291 513 L 293 506 L 295 500 L 296 494 L 295 487 L 294 481 L 292 474 L 290 467 L 288 460 L 287 452 L 286 445 L 287 438 L 289 432 L 293 425 L 298 420 L 303 415 L 309 410 L 314 405 L 320 401 L 324 396 L 327 390 L 330 384 L 332 378 L 334 371 L 335 364 L 337 357 L 340 350 L 344 344 L 348 338 L 354 334 L 360 331 L 367 329 L 375 327 L 382 326 L 389 325 L 395 323 L 402 321 L 407 318 L 412 313 L 417 309 L 422 303 L 427 298 L 433 293 L 439 289 L 445 286 L 452 284 L 459 283 L 466 284 L 473 286 L 480 289 L 487 291 L 494 293 L 500 295 L 506 296 L 513 295 L 519 294 L 526 292 L 533 290 L 540 288 L 548 287 L 555 286 L 562 287 L 568 289 L 575 293 L 580 298 L 585 303 L 590 309 L 595 314 L 599 320 L 604 324 L 610 327 L 616 330 L 622 332 L 629 334 L 636 335 L 643 337 L 650 340 L 656 344 L 662 348 L 666 354 L 669 360 L 671 367 L 673 375 L 674 382 L 675 389 L 677 395 L 679 402 L 682 407 L 687 412 L 691 417 L 697 422 L 702 427 L 707 433 L 711 439 L 714 445 L 716 452 L 717 459 L 716 466 L 714 473 L 711 480 L 709 487 L 707 494 L 705 500 Z" stroke="#16130E" stroke-width="1.9" fill="none" opacity=".85"/><path d="M 714 500 L 715 507 L 717 514 L 720 521 L 722 528 L 725 536 L 726 543 L 727 551 L 726 558 L 723 565 L 719 571 L 714 577 L 708 583 L 703 588 L 697 593 L 692 598 L 688 603 L 685 609 L 682 616 L 681 623 L 679 630 L 678 638 L 676 646 L 673 653 L 670 659 L 665 665 L 659 669 L 652 672 L 644 675 L 637 676 L 629 678 L 622 679 L 615 682 L 609 684 L 604 688 L 598 693 L 594 699 L 589 705 L 583 711 L 578 716 L 572 720 L 565 724 L 558 725 L 550 726 L 543 725 L 535 723 L 528 720 L 521 718 L 514 716 L 507 715 L 500 714 L 493 715 L 486 717 L 479 720 L 472 722 L 464 725 L 457 726 L 449 727 L 442 726 L 435 723 L 429 719 L 423 714 L 417 708 L 412 703 L 407 697 L 402 692 L 397 688 L 391 685 L 384 682 L 377 681 L 370 679 L 362 678 L 354 676 L 347 673 L 341 670 L 335 665 L 331 659 L 328 652 L 325 644 L 324 637 L 322 629 L 321 622 L 318 615 L 316 609 L 312 604 L 307 598 L 301 594 L 295 589 L 289 583 L 284 578 L 280 572 L 276 565 L 275 558 L 274 550 L 275 543 L 277 535 L 280 528 L 282 521 L 284 514 L 285 507 L 286 500 L 285 493 L 283 486 L 280 479 L 278 472 L 275 464 L 274 457 L 273 449 L 274 442 L 277 435 L 281 429 L 286 423 L 292 417 L 297 412 L 303 407 L 308 402 L 312 397 L 315 391 L 318 384 L 319 377 L 321 370 L 322 362 L 324 354 L 327 347 L 330 341 L 335 335 L 341 331 L 348 328 L 356 325 L 363 324 L 371 322 L 378 321 L 385 318 L 391 316 L 396 312 L 402 307 L 406 301 L 411 295 L 417 289 L 422 284 L 428 280 L 435 276 L 442 275 L 450 274 L 457 275 L 465 277 L 472 280 L 479 282 L 486 284 L 493 285 L 500 286 L 507 285 L 514 283 L 521 280 L 528 278 L 536 275 L 543 274 L 551 273 L 558 274 L 565 277 L 571 281 L 577 286 L 583 292 L 588 297 L 593 303 L 598 308 L 603 312 L 609 315 L 616 318 L 623 319 L 630 321 L 638 322 L 646 324 L 653 327 L 659 330 L 665 335 L 669 341 L 672 348 L 675 356 L 676 363 L 678 371 L 679 378 L 682 385 L 684 391 L 688 396 L 693 402 L 699 406 L 705 411 L 711 417 L 716 422 L 720 428 L 724 435 L 725 442 L 726 450 L 725 457 L 723 465 L 720 472 L 718 479 L 716 486 L 715 493 L 714 500 Z" stroke="#16130E" stroke-width="1.9" fill="none" opacity=".85"/><path d="M 726 500 L 729 507 L 732 515 L 735 522 L 737 530 L 739 538 L 739 546 L 738 553 L 735 560 L 731 567 L 726 573 L 720 579 L 714 585 L 708 590 L 704 596 L 700 602 L 697 608 L 695 615 L 694 623 L 693 631 L 692 639 L 690 647 L 687 655 L 683 661 L 678 667 L 671 671 L 664 675 L 656 677 L 648 679 L 640 681 L 633 683 L 626 686 L 620 689 L 615 694 L 610 700 L 605 706 L 600 712 L 595 719 L 589 724 L 582 729 L 575 732 L 568 734 L 560 734 L 552 733 L 544 731 L 536 728 L 529 726 L 521 725 L 514 724 L 507 724 L 500 726 L 493 729 L 485 732 L 478 735 L 470 737 L 462 739 L 454 739 L 447 738 L 440 735 L 433 731 L 427 726 L 421 720 L 415 714 L 410 708 L 404 704 L 398 700 L 392 697 L 385 695 L 377 694 L 369 693 L 361 692 L 353 690 L 345 687 L 339 683 L 333 678 L 329 671 L 325 664 L 323 656 L 321 648 L 319 640 L 317 633 L 314 626 L 311 620 L 306 615 L 300 610 L 294 605 L 288 600 L 281 595 L 276 589 L 271 582 L 268 575 L 266 568 L 266 560 L 267 552 L 269 544 L 272 536 L 274 529 L 275 521 L 276 514 L 276 507 L 274 500 L 271 493 L 268 485 L 265 478 L 263 470 L 261 462 L 261 454 L 262 447 L 265 440 L 269 433 L 274 427 L 280 421 L 286 415 L 292 410 L 296 404 L 300 398 L 303 392 L 305 385 L 306 377 L 307 369 L 308 361 L 310 353 L 313 345 L 317 339 L 322 333 L 329 329 L 336 325 L 344 323 L 352 321 L 360 319 L 367 317 L 374 314 L 380 311 L 385 306 L 390 300 L 395 294 L 400 288 L 405 281 L 411 276 L 418 271 L 425 268 L 432 266 L 440 266 L 448 267 L 456 269 L 464 272 L 471 274 L 479 275 L 486 276 L 493 276 L 500 274 L 507 271 L 515 268 L 522 265 L 530 263 L 538 261 L 546 261 L 553 262 L 560 265 L 567 269 L 573 274 L 579 280 L 585 286 L 590 292 L 596 296 L 602 300 L 608 303 L 615 305 L 623 306 L 631 307 L 639 308 L 647 310 L 655 313 L 661 317 L 667 322 L 671 329 L 675 336 L 677 344 L 679 352 L 681 360 L 683 367 L 686 374 L 689 380 L 694 385 L 700 390 L 706 395 L 712 400 L 719 405 L 724 411 L 729 418 L 732 425 L 734 432 L 734 440 L 733 448 L 731 456 L 728 464 L 726 471 L 725 479 L 724 486 L 724 493 L 726 500 Z" stroke="#16130E" stroke-width="1.9" fill="none" opacity=".85"/><path d="M 740 500 L 744 508 L 747 516 L 750 524 L 751 532 L 751 540 L 750 548 L 747 555 L 743 562 L 737 569 L 731 575 L 726 581 L 720 587 L 716 593 L 712 600 L 710 607 L 709 615 L 708 623 L 707 631 L 706 640 L 704 648 L 701 656 L 696 662 L 691 668 L 684 673 L 676 676 L 668 679 L 660 682 L 652 684 L 645 687 L 638 690 L 632 694 L 627 700 L 622 706 L 617 712 L 612 719 L 606 726 L 600 732 L 594 736 L 586 740 L 578 741 L 570 741 L 562 740 L 553 739 L 545 737 L 537 735 L 530 734 L 522 734 L 515 735 L 507 737 L 500 740 L 492 744 L 484 747 L 476 750 L 468 751 L 460 751 L 452 750 L 445 747 L 438 743 L 431 737 L 425 731 L 419 726 L 413 720 L 407 716 L 400 712 L 393 710 L 385 709 L 377 708 L 369 707 L 360 706 L 352 704 L 344 701 L 338 696 L 332 691 L 327 684 L 324 676 L 321 668 L 318 660 L 316 652 L 313 645 L 310 638 L 306 632 L 300 627 L 294 622 L 288 617 L 281 612 L 274 606 L 268 600 L 264 594 L 260 586 L 259 578 L 259 570 L 260 562 L 261 553 L 263 545 L 265 537 L 266 530 L 266 522 L 265 515 L 263 507 L 260 500 L 256 492 L 253 484 L 250 476 L 249 468 L 249 460 L 250 452 L 253 445 L 257 438 L 263 431 L 269 425 L 274 419 L 280 413 L 284 407 L 288 400 L 290 393 L 291 385 L 292 377 L 293 369 L 294 360 L 296 352 L 299 344 L 304 338 L 309 332 L 316 327 L 324 324 L 332 321 L 340 318 L 348 316 L 355 313 L 362 310 L 368 306 L 373 300 L 378 294 L 383 288 L 388 281 L 394 274 L 400 268 L 406 264 L 414 260 L 422 259 L 430 259 L 438 260 L 447 261 L 455 263 L 463 265 L 470 266 L 478 266 L 485 265 L 493 263 L 500 260 L 508 256 L 516 253 L 524 250 L 532 249 L 540 249 L 548 250 L 555 253 L 562 257 L 569 263 L 575 269 L 581 274 L 587 280 L 593 284 L 600 288 L 607 290 L 615 291 L 623 292 L 631 293 L 640 294 L 648 296 L 656 299 L 662 304 L 668 309 L 673 316 L 676 324 L 679 332 L 682 340 L 684 348 L 687 355 L 690 362 L 694 368 L 700 373 L 706 378 L 712 383 L 719 388 L 726 394 L 732 400 L 736 406 L 740 414 L 741 422 L 741 430 L 740 438 L 739 447 L 737 455 L 735 463 L 734 470 L 734 478 L 735 485 L 737 493 L 740 500 Z" stroke="#16130E" stroke-width="1.9" fill="none" opacity=".85"/><path d="M 755 500 L 759 508 L 762 516 L 763 525 L 763 533 L 762 541 L 758 549 L 754 557 L 748 564 L 743 571 L 737 577 L 732 584 L 728 590 L 725 597 L 723 605 L 722 613 L 722 622 L 721 631 L 720 639 L 718 648 L 714 656 L 710 663 L 704 668 L 697 673 L 689 677 L 681 681 L 672 683 L 664 686 L 657 690 L 650 694 L 644 699 L 639 705 L 634 711 L 629 719 L 624 726 L 619 733 L 612 739 L 605 743 L 598 746 L 589 748 L 581 748 L 572 748 L 563 746 L 555 744 L 546 743 L 538 743 L 531 743 L 523 745 L 516 748 L 508 751 L 500 755 L 492 759 L 484 762 L 475 763 L 467 763 L 459 762 L 451 758 L 443 754 L 436 748 L 429 743 L 423 737 L 416 732 L 410 728 L 403 725 L 395 723 L 387 722 L 378 722 L 369 721 L 361 720 L 352 718 L 344 714 L 337 710 L 332 704 L 327 697 L 323 689 L 319 681 L 317 672 L 314 664 L 310 657 L 306 650 L 301 644 L 295 639 L 289 634 L 281 629 L 274 624 L 267 619 L 261 612 L 257 605 L 254 598 L 252 589 L 252 581 L 252 572 L 254 563 L 256 555 L 257 546 L 257 538 L 257 531 L 255 523 L 252 516 L 249 508 L 245 500 L 241 492 L 238 484 L 237 475 L 237 467 L 238 459 L 242 451 L 246 443 L 252 436 L 257 429 L 263 423 L 268 416 L 272 410 L 275 403 L 277 395 L 278 387 L 278 378 L 279 369 L 280 361 L 282 352 L 286 344 L 290 337 L 296 332 L 303 327 L 311 323 L 319 319 L 328 317 L 336 314 L 343 310 L 350 306 L 356 301 L 361 295 L 366 289 L 371 281 L 376 274 L 381 267 L 388 261 L 395 257 L 402 254 L 411 252 L 419 252 L 428 252 L 437 254 L 445 256 L 454 257 L 462 257 L 469 257 L 477 255 L 484 252 L 492 249 L 500 245 L 508 241 L 516 238 L 525 237 L 533 237 L 541 238 L 549 242 L 557 246 L 564 252 L 571 257 L 577 263 L 584 268 L 590 272 L 597 275 L 605 277 L 613 278 L 622 278 L 631 279 L 639 280 L 648 282 L 656 286 L 663 290 L 668 296 L 673 303 L 677 311 L 681 319 L 683 328 L 686 336 L 690 343 L 694 350 L 699 356 L 705 361 L 711 366 L 719 371 L 726 376 L 733 381 L 739 388 L 743 395 L 746 402 L 748 411 L 748 419 L 748 428 L 746 437 L 744 445 L 743 454 L 743 462 L 743 469 L 745 477 L 748 484 L 751 492 L 755 500 Z" stroke="#16130E" stroke-width="1.9" fill="none" opacity=".85"/><path d="M 770 500 L 773 509 L 775 517 L 775 526 L 773 534 L 769 543 L 765 551 L 760 558 L 754 565 L 749 572 L 744 579 L 741 587 L 738 594 L 737 602 L 736 611 L 736 620 L 735 629 L 734 638 L 731 647 L 728 655 L 723 662 L 717 668 L 709 673 L 701 678 L 693 681 L 685 685 L 677 688 L 670 692 L 663 697 L 657 703 L 652 709 L 647 717 L 642 724 L 637 732 L 631 739 L 625 745 L 617 750 L 609 753 L 601 754 L 592 755 L 583 754 L 574 753 L 565 752 L 556 751 L 548 752 L 540 753 L 532 755 L 524 759 L 517 763 L 508 767 L 500 770 L 491 773 L 483 775 L 474 775 L 466 773 L 457 769 L 449 765 L 442 760 L 435 754 L 428 749 L 421 744 L 413 741 L 406 738 L 398 737 L 389 736 L 380 736 L 371 735 L 362 734 L 353 731 L 345 728 L 338 723 L 332 717 L 327 709 L 322 701 L 319 693 L 315 685 L 312 677 L 308 670 L 303 663 L 297 657 L 291 652 L 283 647 L 276 642 L 268 637 L 261 631 L 255 625 L 250 617 L 247 609 L 246 601 L 245 592 L 246 583 L 247 574 L 248 565 L 249 556 L 248 548 L 247 540 L 245 532 L 241 524 L 237 517 L 233 508 L 230 500 L 227 491 L 225 483 L 225 474 L 227 466 L 231 457 L 235 449 L 240 442 L 246 435 L 251 428 L 256 421 L 259 413 L 262 406 L 263 398 L 264 389 L 264 380 L 265 371 L 266 362 L 269 353 L 272 345 L 277 338 L 283 332 L 291 327 L 299 322 L 307 319 L 315 315 L 323 312 L 330 308 L 337 303 L 343 297 L 348 291 L 353 283 L 358 276 L 363 268 L 369 261 L 375 255 L 383 250 L 391 247 L 399 246 L 408 245 L 417 246 L 426 247 L 435 248 L 444 249 L 452 248 L 460 247 L 468 245 L 476 241 L 483 237 L 492 233 L 500 230 L 509 227 L 517 225 L 526 225 L 534 227 L 543 231 L 551 235 L 558 240 L 565 246 L 572 251 L 579 256 L 587 259 L 594 262 L 602 263 L 611 264 L 620 264 L 629 265 L 638 266 L 647 269 L 655 272 L 662 277 L 668 283 L 673 291 L 678 299 L 681 307 L 685 315 L 688 323 L 692 330 L 697 337 L 703 343 L 709 348 L 717 353 L 724 358 L 732 363 L 739 369 L 745 375 L 750 383 L 753 391 L 754 399 L 755 408 L 754 417 L 753 426 L 752 435 L 751 444 L 752 452 L 753 460 L 755 468 L 759 476 L 763 483 L 767 492 L 770 500 Z" stroke="#16130E" stroke-width="1.9" fill="none" opacity=".85"/><path d="M 785 500 L 786 509 L 786 518 L 784 527 L 780 535 L 776 544 L 771 552 L 765 559 L 760 567 L 756 574 L 753 582 L 751 591 L 750 599 L 750 608 L 750 618 L 749 627 L 748 636 L 746 645 L 742 653 L 737 661 L 730 667 L 722 673 L 714 677 L 706 681 L 697 685 L 690 690 L 683 694 L 676 700 L 671 706 L 666 714 L 661 721 L 656 729 L 651 737 L 644 744 L 638 750 L 630 755 L 622 758 L 613 760 L 603 761 L 594 760 L 584 760 L 575 759 L 567 759 L 558 760 L 550 762 L 542 765 L 534 769 L 526 774 L 517 778 L 509 782 L 500 785 L 491 786 L 482 786 L 473 784 L 465 780 L 456 776 L 448 771 L 441 765 L 433 760 L 426 756 L 418 753 L 409 751 L 401 750 L 392 750 L 382 750 L 373 749 L 364 748 L 355 746 L 347 742 L 339 737 L 333 730 L 327 722 L 323 714 L 319 706 L 315 697 L 310 690 L 306 683 L 300 676 L 294 671 L 286 666 L 279 661 L 271 656 L 263 651 L 256 644 L 250 638 L 245 630 L 242 622 L 240 613 L 239 603 L 240 594 L 240 584 L 241 575 L 241 567 L 240 558 L 238 550 L 235 542 L 231 534 L 226 526 L 222 517 L 218 509 L 215 500 L 214 491 L 214 482 L 216 473 L 220 465 L 224 456 L 229 448 L 235 441 L 240 433 L 244 426 L 247 418 L 249 409 L 250 401 L 250 392 L 250 382 L 251 373 L 252 364 L 254 355 L 258 347 L 263 339 L 270 333 L 278 327 L 286 323 L 294 319 L 303 315 L 310 310 L 317 306 L 324 300 L 329 294 L 334 286 L 339 279 L 344 271 L 349 263 L 356 256 L 362 250 L 370 245 L 378 242 L 387 240 L 397 239 L 406 240 L 416 240 L 425 241 L 433 241 L 442 240 L 450 238 L 458 235 L 466 231 L 474 226 L 483 222 L 491 218 L 500 215 L 509 214 L 518 214 L 527 216 L 535 220 L 544 224 L 552 229 L 559 235 L 567 240 L 574 244 L 582 247 L 591 249 L 599 250 L 608 250 L 618 250 L 627 251 L 636 252 L 645 254 L 653 258 L 661 263 L 667 270 L 673 278 L 677 286 L 681 294 L 685 303 L 690 310 L 694 317 L 700 324 L 706 329 L 714 334 L 721 339 L 729 344 L 737 349 L 744 356 L 750 362 L 755 370 L 758 378 L 760 387 L 761 397 L 760 406 L 760 416 L 759 425 L 759 433 L 760 442 L 762 450 L 765 458 L 769 466 L 774 474 L 778 483 L 782 491 L 785 500 Z" stroke="#16130E" stroke-width="1.9" fill="none" opacity=".85"/><path d="M 797 500 L 796 509 L 794 519 L 791 528 L 787 536 L 782 545 L 777 553 L 772 561 L 769 569 L 766 577 L 765 586 L 764 595 L 764 605 L 764 614 L 764 624 L 762 634 L 760 643 L 756 651 L 750 659 L 743 665 L 736 671 L 727 676 L 719 681 L 710 686 L 703 690 L 696 696 L 690 702 L 684 709 L 680 717 L 675 725 L 670 734 L 664 742 L 658 749 L 651 755 L 643 760 L 634 763 L 625 765 L 615 766 L 605 766 L 596 766 L 586 766 L 577 767 L 569 768 L 561 771 L 552 775 L 544 779 L 536 784 L 527 789 L 518 793 L 509 796 L 500 797 L 491 796 L 481 794 L 472 791 L 464 787 L 455 782 L 447 777 L 439 772 L 431 769 L 423 766 L 414 765 L 405 764 L 395 764 L 386 764 L 376 764 L 366 762 L 357 760 L 349 756 L 341 750 L 335 743 L 329 736 L 324 727 L 319 719 L 314 710 L 310 703 L 304 696 L 298 690 L 291 684 L 283 680 L 275 675 L 266 670 L 258 664 L 251 658 L 245 651 L 240 643 L 237 634 L 235 625 L 234 615 L 234 605 L 234 596 L 234 586 L 233 577 L 232 569 L 229 561 L 225 552 L 221 544 L 216 536 L 211 527 L 207 518 L 204 509 L 203 500 L 204 491 L 206 481 L 209 472 L 213 464 L 218 455 L 223 447 L 228 439 L 231 431 L 234 423 L 235 414 L 236 405 L 236 395 L 236 386 L 236 376 L 238 366 L 240 357 L 244 349 L 250 341 L 257 335 L 264 329 L 273 324 L 281 319 L 290 314 L 297 310 L 304 304 L 310 298 L 316 291 L 320 283 L 325 275 L 330 266 L 336 258 L 342 251 L 349 245 L 357 240 L 366 237 L 375 235 L 385 234 L 395 234 L 404 234 L 414 234 L 423 233 L 431 232 L 439 229 L 448 225 L 456 221 L 464 216 L 473 211 L 482 207 L 491 204 L 500 203 L 509 204 L 519 206 L 528 209 L 536 213 L 545 218 L 553 223 L 561 228 L 569 231 L 577 234 L 586 235 L 595 236 L 605 236 L 614 236 L 624 236 L 634 238 L 643 240 L 651 244 L 659 250 L 665 257 L 671 264 L 676 273 L 681 281 L 686 290 L 690 297 L 696 304 L 702 310 L 709 316 L 717 320 L 725 325 L 734 330 L 742 336 L 749 342 L 755 349 L 760 357 L 763 366 L 765 375 L 766 385 L 766 395 L 766 404 L 766 414 L 767 423 L 768 431 L 771 439 L 775 448 L 779 456 L 784 464 L 789 473 L 793 482 L 796 491 L 797 500 Z" stroke="#16130E" stroke-width="1.9" fill="none" opacity=".85"/><path d="M 807 500 L 805 510 L 801 519 L 797 528 L 792 537 L 788 546 L 784 554 L 781 563 L 779 572 L 778 581 L 778 590 L 778 600 L 778 610 L 778 620 L 776 630 L 774 639 L 769 648 L 764 656 L 757 663 L 749 669 L 740 675 L 732 680 L 724 685 L 716 691 L 710 697 L 704 704 L 699 711 L 694 720 L 689 729 L 684 737 L 679 746 L 672 753 L 665 760 L 656 764 L 647 768 L 638 770 L 628 771 L 617 771 L 608 772 L 598 772 L 589 774 L 580 776 L 572 780 L 563 784 L 555 789 L 547 794 L 538 799 L 529 803 L 519 806 L 510 807 L 500 807 L 490 805 L 481 801 L 472 797 L 463 792 L 454 788 L 446 784 L 437 781 L 428 779 L 419 778 L 410 778 L 400 778 L 390 778 L 380 778 L 370 776 L 361 774 L 352 769 L 344 764 L 337 757 L 331 749 L 325 740 L 320 732 L 315 724 L 309 716 L 303 710 L 296 704 L 289 699 L 280 694 L 271 689 L 263 684 L 254 679 L 247 672 L 240 665 L 236 656 L 232 647 L 230 638 L 229 628 L 229 617 L 228 608 L 228 598 L 226 589 L 224 580 L 220 572 L 216 563 L 211 555 L 206 547 L 201 538 L 197 529 L 194 519 L 193 510 L 193 500 L 195 490 L 199 481 L 203 472 L 208 463 L 212 454 L 216 446 L 219 437 L 221 428 L 222 419 L 222 410 L 222 400 L 222 390 L 222 380 L 224 370 L 226 361 L 231 352 L 236 344 L 243 337 L 251 331 L 260 325 L 268 320 L 276 315 L 284 309 L 290 303 L 296 296 L 301 289 L 306 280 L 311 271 L 316 263 L 321 254 L 328 247 L 335 240 L 344 236 L 353 232 L 362 230 L 372 229 L 383 229 L 392 228 L 402 228 L 411 226 L 420 224 L 428 220 L 437 216 L 445 211 L 453 206 L 462 201 L 471 197 L 481 194 L 490 193 L 500 193 L 510 195 L 519 199 L 528 203 L 537 208 L 546 212 L 554 216 L 563 219 L 572 221 L 581 222 L 590 222 L 600 222 L 610 222 L 620 222 L 630 224 L 639 226 L 648 231 L 656 236 L 663 243 L 669 251 L 675 260 L 680 268 L 685 276 L 691 284 L 697 290 L 704 296 L 711 301 L 720 306 L 729 311 L 737 316 L 746 321 L 753 328 L 760 335 L 764 344 L 768 353 L 770 362 L 771 372 L 771 383 L 772 392 L 772 402 L 774 411 L 776 420 L 780 428 L 784 437 L 789 445 L 794 453 L 799 462 L 803 471 L 806 481 L 807 490 L 807 500 Z" stroke="#16130E" stroke-width="1.9" fill="none" opacity=".85"/><path d="M 815 500 L 811 510 L 807 519 L 803 529 L 799 538 L 795 547 L 793 556 L 791 565 L 791 575 L 791 585 L 792 595 L 792 605 L 792 616 L 791 626 L 788 635 L 783 644 L 777 652 L 770 660 L 762 666 L 754 672 L 745 678 L 737 684 L 730 690 L 724 697 L 718 705 L 713 713 L 709 722 L 704 731 L 699 740 L 693 749 L 686 757 L 679 763 L 670 768 L 661 772 L 651 774 L 640 775 L 630 776 L 620 777 L 610 778 L 601 781 L 592 784 L 584 788 L 575 793 L 567 799 L 558 804 L 549 809 L 540 813 L 530 816 L 520 817 L 510 817 L 500 815 L 490 811 L 481 807 L 471 803 L 462 799 L 453 795 L 444 793 L 435 791 L 425 791 L 415 791 L 405 792 L 395 792 L 384 792 L 374 791 L 365 788 L 356 783 L 348 777 L 340 770 L 334 762 L 328 754 L 322 745 L 316 737 L 310 730 L 303 724 L 295 718 L 287 713 L 278 709 L 269 704 L 260 699 L 251 693 L 243 686 L 237 679 L 232 670 L 228 661 L 226 651 L 225 640 L 224 630 L 223 620 L 222 610 L 219 601 L 216 592 L 212 584 L 207 575 L 201 567 L 196 558 L 191 549 L 187 540 L 184 530 L 183 520 L 183 510 L 185 500 L 189 490 L 193 481 L 197 471 L 201 462 L 205 453 L 207 444 L 209 435 L 209 425 L 209 415 L 208 405 L 208 395 L 208 384 L 209 374 L 212 365 L 217 356 L 223 348 L 230 340 L 238 334 L 246 328 L 255 322 L 263 316 L 270 310 L 276 303 L 282 295 L 287 287 L 291 278 L 296 269 L 301 260 L 307 251 L 314 243 L 321 237 L 330 232 L 339 228 L 349 226 L 360 225 L 370 224 L 380 223 L 390 222 L 399 219 L 408 216 L 416 212 L 425 207 L 433 201 L 442 196 L 451 191 L 460 187 L 470 184 L 480 183 L 490 183 L 500 185 L 510 189 L 519 193 L 529 197 L 538 201 L 547 205 L 556 207 L 565 209 L 575 209 L 585 209 L 595 208 L 605 208 L 616 208 L 626 209 L 635 212 L 644 217 L 652 223 L 660 230 L 666 238 L 672 246 L 678 255 L 684 263 L 690 270 L 697 276 L 705 282 L 713 287 L 722 291 L 731 296 L 740 301 L 749 307 L 757 314 L 763 321 L 768 330 L 772 339 L 774 349 L 775 360 L 776 370 L 777 380 L 778 390 L 781 399 L 784 408 L 788 416 L 793 425 L 799 433 L 804 442 L 809 451 L 813 460 L 816 470 L 817 480 L 817 490 L 815 500 Z" stroke="#16130E" stroke-width="1.9" fill="none" opacity=".85"/><path d="M 821 500 L 817 510 L 813 520 L 809 529 L 807 539 L 805 548 L 804 558 L 804 568 L 805 578 L 806 589 L 807 600 L 806 610 L 805 621 L 802 631 L 797 640 L 791 648 L 783 656 L 775 663 L 767 669 L 759 676 L 751 682 L 744 689 L 738 697 L 733 705 L 728 714 L 724 724 L 719 733 L 714 743 L 708 752 L 701 759 L 693 766 L 684 771 L 674 775 L 664 777 L 653 779 L 643 781 L 633 782 L 623 784 L 614 787 L 605 791 L 596 796 L 588 801 L 579 808 L 570 813 L 561 819 L 551 823 L 541 826 L 531 827 L 521 826 L 510 824 L 500 821 L 490 817 L 480 813 L 471 809 L 461 807 L 452 805 L 442 804 L 432 804 L 422 805 L 411 806 L 400 807 L 390 806 L 379 805 L 369 802 L 360 797 L 352 791 L 344 783 L 337 775 L 331 767 L 324 759 L 318 751 L 311 744 L 303 738 L 295 733 L 286 728 L 276 724 L 267 719 L 257 714 L 248 708 L 241 701 L 234 693 L 229 684 L 225 674 L 223 664 L 221 653 L 219 643 L 218 633 L 216 623 L 213 614 L 209 605 L 204 596 L 199 588 L 192 579 L 187 570 L 181 561 L 177 551 L 174 541 L 173 531 L 174 521 L 176 510 L 179 500 L 183 490 L 187 480 L 191 471 L 193 461 L 195 452 L 196 442 L 196 432 L 195 422 L 194 411 L 193 400 L 194 390 L 195 379 L 198 369 L 203 360 L 209 352 L 217 344 L 225 337 L 233 331 L 241 324 L 249 318 L 256 311 L 262 303 L 267 295 L 272 286 L 276 276 L 281 267 L 286 257 L 292 248 L 299 241 L 307 234 L 316 229 L 326 225 L 336 223 L 347 221 L 357 219 L 367 218 L 377 216 L 386 213 L 395 209 L 404 204 L 412 199 L 421 192 L 430 187 L 439 181 L 449 177 L 459 174 L 469 173 L 479 174 L 490 176 L 500 179 L 510 183 L 520 187 L 529 191 L 539 193 L 548 195 L 558 196 L 568 196 L 578 195 L 589 194 L 600 193 L 610 194 L 621 195 L 631 198 L 640 203 L 648 209 L 656 217 L 663 225 L 669 233 L 676 241 L 682 249 L 689 256 L 697 262 L 705 267 L 714 272 L 724 276 L 733 281 L 743 286 L 752 292 L 759 299 L 766 307 L 771 316 L 775 326 L 777 336 L 779 347 L 781 357 L 782 367 L 784 377 L 787 386 L 791 395 L 796 404 L 801 412 L 808 421 L 813 430 L 819 439 L 823 449 L 826 459 L 827 469 L 826 479 L 824 490 L 821 500 Z" stroke="#16130E" stroke-width="1.9" fill="none" opacity=".85"/><path d="M 827 500 L 823 510 L 820 520 L 818 530 L 817 540 L 817 550 L 818 561 L 819 571 L 820 582 L 821 593 L 820 604 L 819 615 L 815 625 L 810 634 L 804 643 L 797 651 L 789 659 L 780 666 L 772 673 L 765 680 L 758 688 L 753 696 L 748 705 L 743 714 L 739 724 L 734 734 L 729 744 L 723 753 L 716 761 L 708 768 L 698 773 L 688 777 L 678 780 L 667 782 L 656 784 L 646 787 L 636 789 L 627 793 L 618 798 L 609 803 L 601 810 L 592 816 L 583 822 L 573 828 L 563 832 L 553 835 L 542 836 L 532 835 L 521 833 L 510 830 L 500 827 L 490 823 L 480 820 L 470 818 L 460 817 L 450 817 L 439 818 L 429 819 L 418 820 L 407 821 L 396 820 L 385 819 L 375 815 L 366 810 L 357 804 L 349 797 L 341 789 L 334 780 L 327 772 L 320 765 L 312 758 L 304 753 L 295 748 L 286 743 L 276 739 L 266 734 L 256 729 L 247 723 L 239 716 L 232 708 L 227 698 L 223 688 L 220 678 L 218 667 L 216 656 L 213 646 L 211 636 L 207 627 L 202 618 L 197 609 L 190 601 L 184 592 L 178 583 L 172 573 L 168 563 L 165 553 L 164 542 L 165 532 L 167 521 L 170 510 L 173 500 L 177 490 L 180 480 L 182 470 L 183 460 L 183 450 L 182 439 L 181 429 L 180 418 L 179 407 L 180 396 L 181 385 L 185 375 L 190 366 L 196 357 L 203 349 L 211 341 L 220 334 L 228 327 L 235 320 L 242 312 L 247 304 L 252 295 L 257 286 L 261 276 L 266 266 L 271 256 L 277 247 L 284 239 L 292 232 L 302 227 L 312 223 L 322 220 L 333 218 L 344 216 L 354 213 L 364 211 L 373 207 L 382 202 L 391 197 L 399 190 L 408 184 L 417 178 L 427 172 L 437 168 L 447 165 L 458 164 L 468 165 L 479 167 L 490 170 L 500 173 L 510 177 L 520 180 L 530 182 L 540 183 L 550 183 L 561 182 L 571 181 L 582 180 L 593 179 L 604 180 L 615 181 L 625 185 L 634 190 L 643 196 L 651 203 L 659 211 L 666 220 L 673 228 L 680 235 L 688 242 L 696 247 L 705 252 L 714 257 L 724 261 L 734 266 L 744 271 L 753 277 L 761 284 L 768 292 L 773 302 L 777 312 L 780 322 L 782 333 L 784 344 L 787 354 L 789 364 L 793 373 L 798 382 L 803 391 L 810 399 L 816 408 L 822 417 L 828 427 L 832 437 L 835 447 L 836 458 L 835 468 L 833 479 L 830 490 L 827 500 Z" stroke="#16130E" stroke-width="1.9" fill="none" opacity=".85"/><path d="M 833 500 L 831 510 L 829 521 L 829 531 L 829 542 L 831 552 L 832 563 L 834 575 L 835 586 L 834 597 L 832 608 L 829 618 L 824 628 L 817 637 L 810 646 L 802 654 L 794 661 L 786 669 L 779 677 L 773 685 L 767 694 L 763 704 L 759 714 L 755 724 L 750 735 L 745 745 L 739 754 L 731 762 L 723 769 L 713 775 L 703 779 L 692 782 L 681 785 L 670 788 L 660 790 L 650 794 L 640 798 L 632 804 L 623 810 L 614 817 L 605 824 L 596 831 L 586 836 L 576 841 L 566 844 L 555 845 L 543 844 L 532 842 L 521 839 L 511 836 L 500 833 L 490 831 L 479 829 L 469 829 L 458 829 L 448 831 L 437 832 L 425 834 L 414 835 L 403 834 L 392 832 L 382 829 L 372 824 L 363 817 L 354 810 L 346 802 L 339 794 L 331 786 L 323 779 L 315 773 L 306 767 L 296 763 L 286 759 L 276 755 L 265 750 L 255 745 L 246 739 L 238 731 L 231 723 L 225 713 L 221 703 L 218 692 L 215 681 L 212 670 L 210 660 L 206 650 L 202 640 L 196 632 L 190 623 L 183 614 L 176 605 L 169 596 L 164 586 L 159 576 L 156 566 L 155 555 L 156 543 L 158 532 L 161 521 L 164 511 L 167 500 L 169 490 L 171 479 L 171 469 L 171 458 L 169 448 L 168 437 L 166 425 L 165 414 L 166 403 L 168 392 L 171 382 L 176 372 L 183 363 L 190 354 L 198 346 L 206 339 L 214 331 L 221 323 L 227 315 L 233 306 L 237 296 L 241 286 L 245 276 L 250 265 L 255 255 L 261 246 L 269 238 L 277 231 L 287 225 L 297 221 L 308 218 L 319 215 L 330 212 L 340 210 L 350 206 L 360 202 L 368 196 L 377 190 L 386 183 L 395 176 L 404 169 L 414 164 L 424 159 L 434 156 L 445 155 L 457 156 L 468 158 L 479 161 L 489 164 L 500 167 L 510 169 L 521 171 L 531 171 L 542 171 L 552 169 L 563 168 L 575 166 L 586 165 L 597 166 L 608 168 L 618 171 L 628 176 L 637 183 L 646 190 L 654 198 L 661 206 L 669 214 L 677 221 L 685 227 L 694 233 L 704 237 L 714 241 L 724 245 L 735 250 L 745 255 L 754 261 L 762 269 L 769 277 L 775 287 L 779 297 L 782 308 L 785 319 L 788 330 L 790 340 L 794 350 L 798 360 L 804 368 L 810 377 L 817 386 L 824 395 L 831 404 L 836 414 L 841 424 L 844 434 L 845 445 L 844 457 L 842 468 L 839 479 L 836 489 L 833 500 Z" stroke="#16130E" stroke-width="1.9" fill="none" opacity=".85"/><path d="M 841 500 L 840 511 L 840 521 L 842 532 L 843 543 L 846 555 L 847 566 L 848 578 L 848 589 L 846 601 L 842 611 L 837 621 L 831 631 L 823 640 L 815 648 L 807 657 L 800 665 L 793 673 L 787 682 L 783 692 L 778 702 L 774 713 L 771 724 L 766 735 L 761 745 L 754 754 L 747 763 L 738 770 L 728 775 L 717 780 L 706 784 L 695 787 L 684 790 L 674 794 L 664 798 L 655 804 L 646 810 L 637 817 L 628 824 L 619 832 L 610 838 L 600 844 L 590 849 L 579 852 L 567 853 L 556 852 L 544 850 L 533 848 L 522 845 L 511 843 L 500 841 L 489 840 L 479 840 L 468 842 L 457 843 L 445 846 L 434 847 L 422 848 L 411 848 L 399 846 L 389 842 L 379 837 L 369 831 L 360 823 L 352 815 L 343 807 L 335 800 L 327 793 L 318 787 L 308 783 L 298 778 L 287 774 L 276 771 L 265 766 L 255 761 L 246 754 L 237 747 L 230 738 L 225 728 L 220 717 L 216 706 L 213 695 L 210 684 L 206 674 L 202 664 L 196 655 L 190 646 L 183 637 L 176 628 L 168 619 L 162 610 L 156 600 L 151 590 L 148 579 L 147 567 L 148 556 L 150 544 L 152 533 L 155 522 L 157 511 L 159 500 L 160 489 L 160 479 L 158 468 L 157 457 L 154 445 L 153 434 L 152 422 L 152 411 L 154 399 L 158 389 L 163 379 L 169 369 L 177 360 L 185 352 L 193 343 L 200 335 L 207 327 L 213 318 L 217 308 L 222 298 L 226 287 L 229 276 L 234 265 L 239 255 L 246 246 L 253 237 L 262 230 L 272 225 L 283 220 L 294 216 L 305 213 L 316 210 L 326 206 L 336 202 L 345 196 L 354 190 L 363 183 L 372 176 L 381 168 L 390 162 L 400 156 L 410 151 L 421 148 L 433 147 L 444 148 L 456 150 L 467 152 L 478 155 L 489 157 L 500 159 L 511 160 L 521 160 L 532 158 L 543 157 L 555 154 L 566 153 L 578 152 L 589 152 L 601 154 L 611 158 L 621 163 L 631 169 L 640 177 L 648 185 L 657 193 L 665 200 L 673 207 L 682 213 L 692 217 L 702 222 L 713 226 L 724 229 L 735 234 L 745 239 L 754 246 L 763 253 L 770 262 L 775 272 L 780 283 L 784 294 L 787 305 L 790 316 L 794 326 L 798 336 L 804 345 L 810 354 L 817 363 L 824 372 L 832 381 L 838 390 L 844 400 L 849 410 L 852 421 L 853 433 L 852 444 L 850 456 L 848 467 L 845 478 L 843 489 L 841 500 Z" stroke="#16130E" stroke-width="1.9" fill="none" opacity=".85"/><path d="M 851 500 L 852 511 L 854 522 L 856 534 L 859 545 L 861 557 L 862 569 L 861 581 L 859 592 L 855 603 L 850 614 L 844 624 L 836 633 L 828 642 L 821 651 L 814 660 L 808 669 L 802 679 L 798 689 L 794 700 L 790 711 L 787 722 L 782 733 L 777 744 L 770 754 L 762 762 L 753 769 L 743 776 L 732 780 L 721 785 L 710 789 L 699 792 L 688 797 L 679 802 L 669 808 L 661 815 L 652 823 L 643 831 L 634 838 L 624 846 L 614 852 L 603 856 L 592 859 L 580 860 L 569 860 L 557 858 L 545 856 L 533 854 L 522 852 L 511 851 L 500 851 L 489 852 L 478 854 L 466 856 L 455 859 L 443 861 L 431 862 L 419 861 L 408 859 L 397 855 L 386 850 L 376 844 L 367 836 L 358 828 L 349 821 L 340 814 L 331 808 L 321 802 L 311 798 L 300 794 L 289 790 L 278 787 L 267 782 L 256 777 L 246 770 L 238 762 L 231 753 L 224 743 L 220 732 L 215 721 L 211 710 L 208 699 L 203 688 L 198 679 L 192 669 L 185 661 L 177 652 L 169 643 L 162 634 L 154 624 L 148 614 L 144 603 L 141 592 L 140 580 L 140 569 L 142 557 L 144 545 L 146 533 L 148 522 L 149 511 L 149 500 L 148 489 L 146 478 L 144 466 L 141 455 L 139 443 L 138 431 L 139 419 L 141 408 L 145 397 L 150 386 L 156 376 L 164 367 L 172 358 L 179 349 L 186 340 L 192 331 L 198 321 L 202 311 L 206 300 L 210 289 L 213 278 L 218 267 L 223 256 L 230 246 L 238 238 L 247 231 L 257 224 L 268 220 L 279 215 L 290 211 L 301 208 L 312 203 L 321 198 L 331 192 L 339 185 L 348 177 L 357 169 L 366 162 L 376 154 L 386 148 L 397 144 L 408 141 L 420 140 L 431 140 L 443 142 L 455 144 L 467 146 L 478 148 L 489 149 L 500 149 L 511 148 L 522 146 L 534 144 L 545 141 L 557 139 L 569 138 L 581 139 L 592 141 L 603 145 L 614 150 L 624 156 L 633 164 L 642 172 L 651 179 L 660 186 L 669 192 L 679 198 L 689 202 L 700 206 L 711 210 L 722 213 L 733 218 L 744 223 L 754 230 L 762 238 L 769 247 L 776 257 L 780 268 L 785 279 L 789 290 L 792 301 L 797 312 L 802 321 L 808 331 L 815 339 L 823 348 L 831 357 L 838 366 L 846 376 L 852 386 L 856 397 L 859 408 L 860 420 L 860 431 L 858 443 L 856 455 L 854 467 L 852 478 L 851 489 L 851 500 Z" stroke="#16130E" stroke-width="1.9" fill="none" opacity=".85"/><path d="M 863 500 L 866 511 L 869 523 L 871 535 L 874 547 L 875 559 L 874 571 L 872 583 L 868 595 L 863 605 L 856 616 L 849 626 L 842 635 L 834 645 L 828 654 L 822 664 L 817 674 L 813 685 L 810 697 L 806 708 L 803 720 L 798 731 L 793 742 L 786 752 L 778 761 L 768 768 L 758 775 L 747 780 L 736 785 L 725 789 L 714 794 L 703 799 L 694 805 L 685 812 L 676 820 L 667 828 L 658 836 L 649 845 L 639 852 L 629 858 L 618 863 L 606 866 L 594 867 L 582 867 L 570 866 L 558 864 L 546 862 L 534 861 L 523 861 L 511 862 L 500 863 L 489 866 L 477 869 L 465 871 L 453 874 L 441 875 L 429 874 L 417 872 L 405 868 L 395 863 L 384 856 L 374 849 L 365 842 L 355 834 L 346 828 L 336 822 L 326 817 L 315 813 L 303 810 L 292 806 L 280 803 L 269 798 L 258 793 L 248 786 L 239 778 L 232 768 L 225 758 L 220 747 L 215 736 L 211 725 L 206 714 L 201 703 L 195 694 L 188 685 L 180 676 L 172 667 L 164 658 L 155 649 L 148 639 L 142 629 L 137 618 L 134 606 L 133 594 L 133 582 L 134 570 L 136 558 L 138 546 L 139 534 L 139 523 L 138 511 L 137 500 L 134 489 L 131 477 L 129 465 L 126 453 L 125 441 L 126 429 L 128 417 L 132 405 L 137 395 L 144 384 L 151 374 L 158 365 L 166 355 L 172 346 L 178 336 L 183 326 L 187 315 L 190 303 L 194 292 L 197 280 L 202 269 L 207 258 L 214 248 L 222 239 L 232 232 L 242 225 L 253 220 L 264 215 L 275 211 L 286 206 L 297 201 L 306 195 L 315 188 L 324 180 L 333 172 L 342 164 L 351 155 L 361 148 L 371 142 L 382 137 L 394 134 L 406 133 L 418 133 L 430 134 L 442 136 L 454 138 L 466 139 L 477 139 L 489 138 L 500 137 L 511 134 L 523 131 L 535 129 L 547 126 L 559 125 L 571 126 L 583 128 L 595 132 L 605 137 L 616 144 L 626 151 L 635 158 L 645 166 L 654 172 L 664 178 L 674 183 L 685 187 L 697 190 L 708 194 L 720 197 L 731 202 L 742 207 L 752 214 L 761 222 L 768 232 L 775 242 L 780 253 L 785 264 L 789 275 L 794 286 L 799 297 L 805 306 L 812 315 L 820 324 L 828 333 L 836 342 L 845 351 L 852 361 L 858 371 L 863 382 L 866 394 L 867 406 L 867 418 L 866 430 L 864 442 L 862 454 L 861 466 L 861 477 L 862 489 L 863 500 Z" stroke="#16130E" stroke-width="1.9" fill="none" opacity=".85"/><path d="M 877 500 L 881 512 L 884 524 L 886 537 L 887 549 L 887 561 L 885 573 L 881 585 L 876 596 L 869 607 L 862 618 L 855 628 L 848 638 L 842 648 L 837 658 L 832 669 L 829 681 L 826 693 L 823 705 L 819 717 L 815 729 L 809 740 L 802 750 L 794 759 L 784 767 L 773 773 L 762 779 L 751 785 L 740 790 L 729 795 L 719 801 L 709 808 L 700 815 L 692 824 L 683 833 L 674 842 L 665 850 L 655 858 L 644 864 L 633 869 L 621 872 L 608 873 L 596 873 L 583 873 L 571 871 L 559 870 L 547 870 L 535 870 L 523 872 L 512 874 L 500 877 L 488 881 L 476 884 L 463 886 L 451 887 L 439 887 L 427 885 L 415 881 L 404 876 L 393 869 L 382 862 L 372 855 L 362 848 L 352 842 L 342 837 L 331 832 L 319 829 L 307 826 L 295 823 L 283 819 L 271 815 L 260 809 L 250 802 L 241 794 L 233 784 L 227 773 L 221 762 L 215 751 L 210 740 L 205 729 L 199 719 L 192 709 L 185 700 L 176 692 L 167 683 L 158 674 L 150 665 L 142 655 L 136 644 L 131 633 L 128 621 L 127 608 L 127 596 L 127 583 L 129 571 L 130 559 L 130 547 L 130 535 L 128 523 L 126 512 L 123 500 L 119 488 L 116 476 L 114 463 L 113 451 L 113 439 L 115 427 L 119 415 L 124 404 L 131 393 L 138 382 L 145 372 L 152 362 L 158 352 L 163 342 L 168 331 L 171 319 L 174 307 L 177 295 L 181 283 L 185 271 L 191 260 L 198 250 L 206 241 L 216 233 L 227 227 L 238 221 L 249 215 L 260 210 L 271 205 L 281 199 L 291 192 L 300 185 L 308 176 L 317 167 L 326 158 L 335 150 L 345 142 L 356 136 L 367 131 L 379 128 L 392 127 L 404 127 L 417 127 L 429 129 L 441 130 L 453 130 L 465 130 L 477 128 L 488 126 L 500 123 L 512 119 L 524 116 L 537 114 L 549 113 L 561 113 L 573 115 L 585 119 L 596 124 L 607 131 L 618 138 L 628 145 L 638 152 L 648 158 L 658 163 L 669 168 L 681 171 L 693 174 L 705 177 L 717 181 L 729 185 L 740 191 L 750 198 L 759 206 L 767 216 L 773 227 L 779 238 L 785 249 L 790 260 L 795 271 L 801 281 L 808 291 L 815 300 L 824 308 L 833 317 L 842 326 L 850 335 L 858 345 L 864 356 L 869 367 L 872 379 L 873 392 L 873 404 L 873 417 L 871 429 L 870 441 L 870 453 L 870 465 L 872 477 L 874 488 L 877 500 Z" stroke="#16130E" stroke-width="1.9" fill="none" opacity=".85"/></g>
<path d="M 500 722 L 413 556 C 386 478 390 408 430 358 C 452 330 474 318 500 314 C 526 318 548 330 570 358 C 610 408 614 478 587 556 Z" stroke="#16130E" stroke-width="11" fill="none" stroke-linejoin="miter"/>
<path d="M 500 700 L 500 512" stroke="#16130E" stroke-width="7"/>
<path d="M 443 574 C 424 500 430 432 462 386 M 557 574 C 576 500 570 432 538 386" stroke="#16130E" stroke-width="4.5" fill="none" opacity=".85"/>
<path d="M 500 396 L 552 462 L 500 528 L 448 462 Z" fill="#BE3319"/></g></svg>